<svg height="600" version="1.1" width="800" xmlns="http://www.w3.org/2000/svg" preserveAspectRatio="xMidYMid meet" viewBox="0 0 600 442" xmlns:xlink="http://www.w3.org/1999/xlink"><desc>Created with Snap</desc><defs/><g id="root" contentwidth="360.4" contentheight="263.7">
          <rect class="background" height="2000%" width="2000%" y="-1000%" x="-1000%" style="" fill="#ffffff"/>
          <g class="content" id="content" transform="matrix(1,0,0,1,-1.2,44.15)">
            <g class="icon">
            <svg height="91" version="1.1" width="75" xmlns="http://www.w3.org/2000/svg" x="193" y="105" preserveAspectRatio="none" transform="matrix(1,0,0,1,0,0)"><desc>Created with Snap</desc><defs/><svg xmlns="http://www.w3.org/2000/svg" viewBox="181 105 75 91"><defs><linearGradient x1="22%" y1="-12%" x2="38%" y2="117%" id="prefix-Ufr-linearGradient-1"><stop stop-color="#FFA552" offset="0%"/><stop stop-color="#FF6A00" offset="100%"/></linearGradient><linearGradient x1="21%" y1="-12%" x2="33%" y2="106%" id="prefix-Ufr-linearGradient-2"><stop stop-color="#D66423" offset="0%"/><stop stop-color="#D85F20" offset="100%"/></linearGradient><linearGradient x1="16%" y1="0%" x2="38%" y2="106%" id="prefix-Ufr-linearGradient-3"><stop stop-color="#E36742" offset="0%"/><stop stop-color="#A1000C" offset="100%"/></linearGradient><linearGradient x1="33%" y1="15%" x2="50%" y2="85%" id="prefix-Ufr-linearGradient-4"><stop stop-color="#4B4B4B" offset="0%"/><stop stop-color="#181811" offset="100%"/></linearGradient></defs><path d="M256 195.154c-9.19-.19-18.14-1.39-26.76-3.49l-48.17-87.12h22.62l52.31 90.61Z" id="prefix-Ufr-Fill-1" fill="url(#prefix-Ufr-linearGradient-1)"/></svg></svg><svg height="87" version="1.1" width="70" xmlns="http://www.w3.org/2000/svg" x="171" y="105" preserveAspectRatio="none" transform="matrix(1,0,0,1,0,0)"><desc>Created with Snap</desc><defs/><svg xmlns="http://www.w3.org/2000/svg" viewBox="159 105 70 87"><defs><linearGradient x1="22%" y1="-12%" x2="38%" y2="117%" id="prefix-u4x-linearGradient-1"><stop stop-color="#FFA552" offset="0%"/><stop stop-color="#FF6A00" offset="100%"/></linearGradient><linearGradient x1="21%" y1="-12%" x2="33%" y2="106%" id="prefix-u4x-linearGradient-2"><stop stop-color="#D66423" offset="0%"/><stop stop-color="#D85F20" offset="100%"/></linearGradient><linearGradient x1="16%" y1="0%" x2="38%" y2="106%" id="prefix-u4x-linearGradient-3"><stop stop-color="#E36742" offset="0%"/><stop stop-color="#A1000C" offset="100%"/></linearGradient><linearGradient x1="33%" y1="15%" x2="50%" y2="85%" id="prefix-u4x-linearGradient-4"><stop stop-color="#4B4B4B" offset="0%"/><stop stop-color="#181811" offset="100%"/></linearGradient></defs><path d="M229.24 191.664a125.32 125.32 0 0 1-27.66-10.3l-42.47-76.82h21.96l48.17 87.12Z" id="prefix-u4x-Fill-3" fill="url(#prefix-u4x-linearGradient-2)"/></svg></svg><svg height="77" version="1.1" width="66" xmlns="http://www.w3.org/2000/svg" x="148" y="105" preserveAspectRatio="none" transform="matrix(1,0,0,1,0,0)"><desc>Created with Snap</desc><defs/><svg xmlns="http://www.w3.org/2000/svg" viewBox="136 105 66 77"><defs><linearGradient x1="22%" y1="-12%" x2="38%" y2="117%" id="prefix-BGa-linearGradient-1"><stop stop-color="#FFA552" offset="0%"/><stop stop-color="#FF6A00" offset="100%"/></linearGradient><linearGradient x1="21%" y1="-12%" x2="33%" y2="106%" id="prefix-BGa-linearGradient-2"><stop stop-color="#D66423" offset="0%"/><stop stop-color="#D85F20" offset="100%"/></linearGradient><linearGradient x1="16%" y1="0%" x2="38%" y2="106%" id="prefix-BGa-linearGradient-3"><stop stop-color="#E36742" offset="0%"/><stop stop-color="#A1000C" offset="100%"/></linearGradient><linearGradient x1="33%" y1="15%" x2="50%" y2="85%" id="prefix-BGa-linearGradient-4"><stop stop-color="#4B4B4B" offset="0%"/><stop stop-color="#181811" offset="100%"/></linearGradient></defs><path d="M201.58 181.364c-30.83-15.77-54.71-43.74-65.58-76.82h23.11l42.47 76.82Z" id="prefix-BGa-Fill-5" fill="url(#prefix-BGa-linearGradient-3)"/></svg></svg><svg height="195" version="1.1" width="232" xmlns="http://www.w3.org/2000/svg" x="216" y="45" preserveAspectRatio="none" transform="matrix(1,0,0,1,0,0)"><desc>Created with Snap</desc><defs/><svg xmlns="http://www.w3.org/2000/svg" viewBox="204 45 232 195"><defs><linearGradient x1="22%" y1="-12%" x2="38%" y2="117%" id="prefix-5CF-linearGradient-1"><stop stop-color="#FFA552" offset="0%"/><stop stop-color="#FF6A00" offset="100%"/></linearGradient><linearGradient x1="21%" y1="-12%" x2="33%" y2="106%" id="prefix-5CF-linearGradient-2"><stop stop-color="#D66423" offset="0%"/><stop stop-color="#D85F20" offset="100%"/></linearGradient><linearGradient x1="16%" y1="0%" x2="38%" y2="106%" id="prefix-5CF-linearGradient-3"><stop stop-color="#E36742" offset="0%"/><stop stop-color="#A1000C" offset="100%"/></linearGradient><linearGradient x1="33%" y1="15%" x2="50%" y2="85%" id="prefix-5CF-linearGradient-4"><stop stop-color="#4B4B4B" offset="0%"/><stop stop-color="#181811" offset="100%"/></linearGradient></defs><path d="M375.55 99.049c-4.836-15.789-20.512-51.136-63.826-50.383 0 0 6.577 44.402 39.659 55.878H203.69l52.31 90.61 12.85 22.26c8.31 14.39 23.38 22.43 38.88 22.43 7.6 0 15.32-1.94 22.38-6.02l-26.9-46.58c36.358-13.402 65.005-42.723 77.51-79.493C430.77 106.364 435.19 45 435.19 45c-42.392 2.449-55.702 37.493-59.64 54.049Z" id="prefix-5CF-Fill-7" fill="url(#prefix-5CF-linearGradient-4)"/></svg></svg><svg height="26" version="1.1" width="26" xmlns="http://www.w3.org/2000/svg" x="242" y="113" preserveAspectRatio="none" transform="matrix(1,0,0,1,0,0)"><desc>Created with Snap</desc><defs/><svg xmlns="http://www.w3.org/2000/svg" viewBox="230 113 26 26"><defs><linearGradient x1="22%" y1="-12%" x2="38%" y2="117%" id="prefix-2rr-linearGradient-1"><stop stop-color="#FFA552" offset="0%"/><stop stop-color="#FF6A00" offset="100%"/></linearGradient><linearGradient x1="21%" y1="-12%" x2="33%" y2="106%" id="prefix-2rr-linearGradient-2"><stop stop-color="#D66423" offset="0%"/><stop stop-color="#D85F20" offset="100%"/></linearGradient><linearGradient x1="16%" y1="0%" x2="38%" y2="106%" id="prefix-2rr-linearGradient-3"><stop stop-color="#E36742" offset="0%"/><stop stop-color="#A1000C" offset="100%"/></linearGradient><linearGradient x1="33%" y1="15%" x2="50%" y2="85%" id="prefix-2rr-linearGradient-4"><stop stop-color="#4B4B4B" offset="0%"/><stop stop-color="#181811" offset="100%"/></linearGradient></defs><path d="M256 126c0 7.18-5.82 13-13 13s-13-5.82-13-13 5.82-13 13-13 13 5.82 13 13" id="prefix-2rr-Fill-9备份" fill="#FFF"/></svg></svg><svg height="14" version="1.1" width="14" xmlns="http://www.w3.org/2000/svg" x="248" y="119" preserveAspectRatio="none" transform="matrix(1,0,0,1,0,0)"><desc>Created with Snap</desc><defs/><svg xmlns="http://www.w3.org/2000/svg" viewBox="236 119 14 14"><defs><linearGradient x1="22%" y1="-12%" x2="38%" y2="117%" id="prefix-hs--linearGradient-1"><stop stop-color="#FFA552" offset="0%"/><stop stop-color="#FF6A00" offset="100%"/></linearGradient><linearGradient x1="21%" y1="-12%" x2="33%" y2="106%" id="prefix-hs--linearGradient-2"><stop stop-color="#D66423" offset="0%"/><stop stop-color="#D85F20" offset="100%"/></linearGradient><linearGradient x1="16%" y1="0%" x2="38%" y2="106%" id="prefix-hs--linearGradient-3"><stop stop-color="#E36742" offset="0%"/><stop stop-color="#A1000C" offset="100%"/></linearGradient><linearGradient x1="33%" y1="15%" x2="50%" y2="85%" id="prefix-hs--linearGradient-4"><stop stop-color="#4B4B4B" offset="0%"/><stop stop-color="#181811" offset="100%"/></linearGradient></defs><path d="M244.028 119v6.258h-2.083v-6.255a7.018 7.018 0 0 0-5.945 6.944c0 3.895 3.134 7.053 7 7.053s7-3.158 7-7.053a7.017 7.017 0 0 0-5.972-6.947" id="prefix-hs--Fill-11备份" fill="#333325"/></svg></svg></g>
            <g id="icon_name_and_slogan_gap">
            </g>
            <g class="name_and_slogan" id="name_and_slogan_id">
              <g class="name"><g id="nameDefaultGroup"><path d="M150.3 265.2 Q153.1 265.2 155.5 267.3 L155.5 267.3 Q157.4 268.9 157.3 272.2 L157.3 272.2 L157.3 301.7 Q157.3 304.9 155.5 306.6 L155.5 306.6 Q153.2 308.6 150.3 308.6 L150.3 308.6 L121 308.6 L121 265.2 L150.3 265.2 M148.8 273.1 L129.7 273.1 L129.7 300.8 L148.8 300.8 L148.8 273.1 M165.2 278.9 Q167.1 276.7 169.6 276.7 L169.6 276.7 L187 276.7 Q189.5 276.7 191.3 278.9 L191.3 278.9 Q193.1 281 193.1 284.1 L193.1 284.1 L193.1 301.9 L196.2 301.9 L196.2 308.6 L169.5 308.6 Q166.9 308.6 165.1 306.4 L165.1 306.4 Q163.3 304.2 163.3 301.2 L163.3 301.2 L163.3 284.1 Q163.3 281.2 165.2 278.9 L165.2 278.9 M184.4 301.9 L184.4 283.4 L172 283.4 L172 301.9 L184.4 301.9 M221.7 283.6 L209.4 283.6 L209.4 308.6 L200.7 308.6 L200.7 276.7 L224.2 276.7 Q226.8 276.7 228.6 279 L228.6 279 Q230.4 281.2 230.4 284.4 L230.4 284.4 L230.4 308.6 L221.7 308.6 L221.7 283.6 M256.8 308.6 L246.4 308.6 Q243.9 308.6 242.1 306.8 L242.1 306.8 Q240.3 305 240.3 302.4 L240.3 302.4 L240.3 283.6 L234.3 283.6 L234.3 276.7 L240.3 276.7 L240.3 268.5 L248.9 268.5 L248.9 276.7 L257 276.7 L257 283.6 L248.9 283.6 L248.9 301.7 L256.8 301.7 L256.8 308.6 M291.4 283.8 L291.4 289 Q291.4 292.1 289.7 294.1 Q287.9 296.1 285.2 296.1 L285.2 296.1 L269.7 296.1 L269.7 301.9 L291.4 301.9 L291.4 308.6 L267.1 308.6 Q264.6 308.6 262.8 306.3 L262.8 306.3 Q261 304 261 300.8 L261 300.8 L261 284.4 Q261 281.2 262.8 279 L262.8 279 Q264.6 276.7 267.1 276.7 L267.1 276.7 L285.2 276.7 Q287.9 276.7 289.7 278.6 Q291.4 280.6 291.4 283.8 L291.4 283.8 M269.7 283.4 L269.7 289.4 L282.7 289.4 L282.7 283.4 L269.7 283.4 M320.7 306.8 Q318.9 305 318.9 302.4 L318.9 302.4 L318.9 271.6 Q318.9 268.9 320.7 267.1 L320.7 267.1 Q322.5 265.3 325 265.3 L325 265.3 L354.2 265.3 L354.2 272.8 L327.8 272.8 L327.8 301.1 L354.2 301.1 L354.2 308.7 L325 308.7 Q322.5 308.7 320.7 306.8 L320.7 306.8 M359.7 265.2 L368.3 265.2 L368.3 308.6 L359.7 308.6 L359.7 265.2 M404.6 306.3 Q402.7 308.6 400.2 308.6 L400.2 308.6 L380.5 308.6 Q378.1 308.6 376.1 306.3 L376.1 306.3 Q374.2 304.1 374.2 300.8 L374.2 300.8 L374.2 284.4 Q374.2 281.3 376.1 279 L376.1 279 Q378 276.7 380.5 276.7 L380.5 276.7 L400.2 276.7 Q402.8 276.7 404.6 279 L404.6 279 Q406.4 281.2 406.4 284.4 L406.4 284.4 L406.4 300.8 Q406.4 304.2 404.6 306.3 L404.6 306.3 M382.9 301.8 L397.7 301.8 L397.7 283.5 L382.9 283.5 L382.9 301.8 M441.2 301.9 L443.8 301.9 L443.8 308.6 L417.4 308.6 Q415.3 308.6 413.8 306.8 L413.8 306.8 Q412.2 304.8 412.2 302.4 L412.2 302.4 L412.2 276.6 L420.9 276.6 L420.9 301.9 L432.5 301.9 L432.5 276.7 L441.2 276.7 L441.2 301.9 M451.8 280.4 Q453.6 278.4 456.1 278.4 L456.1 278.4 L472.7 278.4 L472.7 265.2 L481.4 265.2 L481.3 308.6 L456.1 308.6 Q453.5 308.6 451.8 306.6 L451.8 306.6 Q450 304.5 450 301.8 L450 301.8 L450 285.2 Q450 282.4 451.8 280.4 L451.8 280.4 M472.7 301.9 L472.7 285.1 L458.7 285.1 L458.7 301.9 L472.7 301.9 Z" style="" fill="#303222" transform="matrix(1,0,0,1,0,0)"/></g></g>
              <g class="slogan"><g id="sloganDefaultGroup"/></g>
            </g>
            <g class="border">
            </g>
          </g>
          
          <defs id="defs">
            <mask xmlns="http://www.w3.org/2000/svg" id="mask">
                <rect id="showAll" fill="white" x="148" y="45" width="300" height="195"/>
                <rect id="hideNameBg" fill="black" x="0" y="0" width="0" height="0" stroke-width="2" stroke="black"/>
                <rect id="hideSloganBg" fill="black" x="0" y="0" width="0" height="0" stroke-width="2" stroke="black"/>
            </mask>
          </defs>
          
        </g>
        </svg>